<svg xmlns="http://www.w3.org/2000/svg" xmlns:xlink="http://www.w3.org/1999/xlink" width="500" zoomAndPan="magnify" viewBox="0 0 375 374.999991" height="500" preserveAspectRatio="xMidYMid meet" version="1.2"><defs><clipPath id="531b60e330"><path d="M 113 135 L 274 135 L 274 269.703125 L 113 269.703125 Z M 113 135 "/></clipPath><clipPath id="d0b0e01691"><path d="M 93 55.203125 L 210 55.203125 L 210 196 L 93 196 Z M 93 55.203125 "/></clipPath></defs><g id="57949a35cd"><g clip-rule="nonzero" clip-path="url(#531b60e330)"><path style=" stroke:none;fill-rule:nonzero;fill:#59114d;fill-opacity:1;" d="M 169.675781 227.394531 C 177.359375 226.386719 184.671875 219.527344 184.808594 219.402344 C 184.792969 219.453125 185.050781 219.941406 191.960938 224.664062 C 200.257812 230.339844 207.792969 221.867188 207.792969 221.867188 C 219.09375 228.894531 226.851562 225.570312 226.851562 225.570312 C 219.976562 230.03125 210.199219 227.082031 210.199219 227.082031 C 195.230469 235.515625 185.105469 225.425781 185.105469 225.425781 C 178.820312 228.421875 169.675781 227.394531 169.675781 227.394531 Z M 113.714844 220.761719 C 118.492188 231.199219 125.355469 240.484375 133.765625 248.085938 C 157.917969 244.21875 167.246094 233.234375 167.246094 233.234375 C 167.246094 233.234375 174.242188 245.394531 190.785156 245.277344 C 207.320312 245.164062 210.972656 233.234375 210.972656 233.234375 C 210.972656 233.234375 216.863281 240.941406 232.132812 244.683594 C 241.941406 247.089844 253.441406 240.996094 256.800781 236.355469 L 256.804688 236.347656 C 250.9375 234.90625 246.816406 233.375 246.816406 233.375 C 235.042969 240.449219 222.660156 235.304688 222.660156 235.304688 C 235.078125 237.535156 245.402344 222.046875 245.402344 222.046875 C 245.402344 222.046875 249.886719 227.757812 259.839844 232.058594 C 268.582031 218.828125 273.675781 202.972656 273.675781 185.929688 C 273.675781 167.109375 267.46875 149.738281 256.988281 135.75 C 255.554688 136.765625 253.894531 138.125 251.796875 140.386719 C 234.648438 158.882812 210.140625 177.121094 191.019531 189.074219 C 164.859375 205.425781 137.414062 216.027344 113.714844 220.761719 Z M 135.5625 249.664062 C 150.191406 262.152344 169.167969 269.691406 189.910156 269.691406 C 208.070312 269.691406 224.878906 263.910156 238.601562 254.09375 C 223.96875 254.445312 213.746094 246.121094 213.746094 246.121094 C 190.824219 262.558594 167.246094 245.394531 167.246094 245.394531 C 150.9375 249.945312 140.960938 250.199219 135.5625 249.664062 "/></g><path style=" stroke:none;fill-rule:nonzero;fill:#e98a15;fill-opacity:1;" d="M 191.019531 189.074219 C 210.140625 177.121094 234.648438 158.882812 251.796875 140.386719 C 253.894531 138.125 255.554688 136.765625 256.988281 135.75 C 257.390625 136.285156 257.78125 136.828125 258.167969 137.367188 C 247.976562 153.0625 228.25 179.902344 200.324219 201.96875 C 175.558594 221.535156 150.046875 235.570312 128.359375 242.738281 C 122.390625 236.273438 117.421875 228.863281 113.714844 220.761719 C 137.414062 216.027344 164.859375 205.425781 191.019531 189.074219 "/><path style=" stroke:none;fill-rule:nonzero;fill:#e98a15;fill-opacity:1;" d="M 248.703125 126.265625 C 239.777344 136.007812 223.160156 152.171875 199.8125 166.671875 C 179.914062 179.023438 159.148438 188.316406 141.054688 193.269531 C 137.238281 194.3125 133.539062 195.160156 129.996094 195.808594 C 124.648438 196.78125 119.648438 197.289062 115.105469 197.289062 C 112.023438 197.289062 109.25 197.054688 106.820312 196.597656 C 106.378906 193.105469 106.148438 189.542969 106.148438 185.929688 C 106.148438 155.492188 122.382812 128.847656 146.664062 114.179688 C 154.136719 109.664062 162.375 106.28125 171.136719 104.277344 C 171.183594 104.265625 171.226562 104.253906 171.273438 104.246094 C 173.550781 103.726562 175.867188 103.304688 178.210938 102.976562 C 178.535156 102.929688 178.863281 102.886719 179.191406 102.84375 C 181.507812 102.546875 183.851562 102.347656 186.226562 102.246094 C 186.378906 102.238281 186.53125 102.230469 186.683594 102.226562 C 187.757812 102.183594 188.832031 102.164062 189.910156 102.164062 C 194.167969 102.164062 198.351562 102.480469 202.4375 103.09375 C 220.339844 105.78125 236.390625 114.132812 248.703125 126.265625 "/><path style=" stroke:none;fill-rule:nonzero;fill:#012622;fill-opacity:1;" d="M 293.578125 91.445312 C 300.082031 81.476562 303.597656 72.625 301.5 71.195312 C 299.40625 69.765625 292.445312 76.269531 285.535156 85.957031 L 258.996094 86.160156 L 254.746094 92.390625 L 275.554688 101.5 C 272.875 105.917969 270.101562 110.648438 267.671875 115.007812 L 254.105469 114.296875 L 252.070312 117.277344 L 263.679688 122.484375 C 263.472656 122.890625 242.546875 150.71875 204.550781 174.3125 C 153.160156 206.21875 101.425781 215.871094 88.976562 195.835938 C 80.351562 181.953125 92.863281 157.464844 118.453125 133.113281 C 77.511719 164.832031 54.929688 200.417969 66.417969 218.910156 C 80.113281 240.953125 137.140625 230.5 193.578125 195.226562 C 239.21875 166.699219 267.421875 125.257812 267.542969 125.121094 L 272.433594 131.902344 L 274.46875 128.921875 L 273.046875 118.675781 C 276.21875 114.824219 279.617188 110.515625 282.75 106.410156 L 287.386719 120.566406 L 291.636719 114.332031 L 293.578125 91.445312 "/><g clip-rule="nonzero" clip-path="url(#d0b0e01691)"><path style=" stroke:none;fill-rule:nonzero;fill:#012622;fill-opacity:1;" d="M 188.890625 104.027344 C 191.566406 106.332031 194.816406 107.847656 198.28125 108.515625 C 201.953125 109.222656 205.382812 110.335938 209.15625 112.128906 C 209.15625 112.128906 206.867188 107.800781 202.4375 103.09375 C 195.828125 96.066406 184.441406 88.195312 168.773438 92.625 C 169 92.476562 169.234375 92.332031 169.46875 92.183594 C 168.339844 91.738281 167.027344 91.371094 165.546875 91.207031 C 165.546875 91.207031 166.324219 90.96875 167.609375 90.957031 C 170.039062 90.929688 172.425781 90.335938 174.546875 89.164062 L 174.621094 89.121094 C 173.339844 88.539062 172.640625 87.5625 170.832031 87.359375 C 170.832031 87.359375 171.875 87.046875 173.53125 87.121094 C 176.277344 87.246094 179.019531 86.738281 181.496094 85.546875 C 181.636719 85.476562 181.773438 85.410156 181.914062 85.34375 C 180.527344 84.628906 178.75 83.980469 176.628906 83.746094 C 176.628906 83.746094 178.09375 83.257812 180.136719 83.269531 C 184.203125 83.289062 188.226562 82.449219 192 80.933594 C 192.160156 80.871094 192.308594 80.8125 192.449219 80.753906 C 189.136719 79.765625 184.695312 78.765625 182.550781 78.527344 C 182.550781 78.527344 193.117188 77.425781 200.921875 78.203125 C 200.921875 78.203125 174.582031 60.035156 159.714844 93.167969 C 162.183594 84.894531 162.90625 70.492188 149.765625 61.53125 C 143.597656 57.328125 135.136719 55.199219 135.136719 55.199219 C 137.472656 57.5 148.988281 71.105469 150.015625 73.1875 C 149.925781 73.121094 147.09375 71.027344 143.769531 69.628906 C 143.820312 69.789062 143.871094 69.945312 143.921875 70.105469 C 144.820312 72.984375 150.265625 79.625 150.890625 80.894531 C 150.890625 80.894531 148.597656 79.1875 145.703125 77.808594 C 146.382812 81.988281 148.320312 86.46875 148.496094 90.246094 C 135.238281 64.453125 106.28125 72.464844 106.28125 72.464844 C 115.804688 73.480469 128.164062 77.425781 128.164062 77.425781 C 125.542969 77.175781 119.980469 77.265625 115.777344 77.625 C 115.917969 77.71875 116.066406 77.816406 116.222656 77.921875 C 120.382812 80.6875 125.011719 82.695312 129.902344 83.699219 C 132.332031 84.199219 133.945312 85.136719 133.945312 85.136719 C 131.351562 84.890625 129.066406 85.226562 127.226562 85.734375 L 127.445312 85.898438 C 130.226562 88.011719 133.492188 89.382812 136.933594 89.96875 C 138.859375 90.296875 139.976562 90.902344 139.976562 90.902344 C 137.765625 90.695312 136.6875 91.6875 135.011719 92.066406 C 135.085938 92.132812 135.15625 92.195312 135.230469 92.257812 C 135.832031 92.777344 136.46875 93.246094 137.132812 93.667969 C 102.492188 82.472656 93.476562 107.546875 93.476562 107.546875 C 101.261719 102.132812 113.03125 97.070312 113.261719 96.972656 C 111.113281 98.503906 106.972656 102.207031 104.03125 105.230469 C 104.058594 105.226562 104.085938 105.222656 104.113281 105.222656 C 109.339844 104.527344 114.375 102.84375 119.039062 100.382812 C 121.046875 99.324219 122.683594 99.011719 122.683594 99.011719 C 120.5625 100.527344 119.050781 102.277344 117.996094 103.863281 C 118.042969 103.863281 118.089844 103.859375 118.132812 103.855469 C 121.679688 103.628906 125.097656 102.519531 128.140625 100.6875 C 129.738281 99.722656 130.941406 99.441406 131.015625 99.425781 C 129.210938 100.714844 129.042969 102.171875 128.027344 103.554688 L 128.097656 103.554688 C 131.03125 103.542969 133.925781 102.820312 136.492188 101.398438 C 137.878906 100.628906 138.882812 100.398438 138.941406 100.382812 C 137.460938 101.4375 136.28125 102.609375 135.34375 103.757812 C 136.726562 103.832031 138.046875 103.917969 139.296875 104.019531 C 120.195312 108.722656 120.304688 130.871094 120.304688 130.871094 C 121.433594 128.5 122.890625 126.453125 124.5625 124.664062 C 125.386719 120.320312 127.132812 116.917969 127.132812 116.917969 C 126.75 119.097656 127.574219 124.121094 127.585938 124.105469 C 130.335938 121.695312 131.511719 117.320312 132.929688 113.953125 C 133.296875 113.082031 133.554688 112.578125 133.554688 112.578125 C 133.179688 114.703125 133.003906 116.601562 132.960938 118.28125 C 132.980469 118.269531 133.003906 118.257812 133.023438 118.246094 C 136.640625 116.226562 139.53125 113.113281 141.195312 109.316406 C 141.472656 108.683594 141.074219 112.703125 141.054688 114.496094 C 145.960938 109.976562 148.984375 111.25 148.984375 111.25 C 148.257812 112.113281 147.476562 113.089844 146.664062 114.179688 C 137.804688 126.054688 124.90625 151.582031 129.996094 195.808594 C 133.539062 195.160156 137.238281 194.3125 141.054688 193.269531 C 136.902344 175.953125 131.953125 140.335938 152.1875 113.886719 C 152.191406 114.082031 152.929688 112.695312 153.578125 111.992188 C 153.699219 112.09375 152.273438 118.085938 152.183594 120.585938 L 152.183594 120.644531 C 153.375 119.824219 154.605469 119.722656 155.742188 118.234375 C 155.726562 118.292969 155.457031 119.300781 154.601562 120.625 C 152.980469 123.140625 151.957031 125.996094 151.675781 128.976562 C 151.671875 129.011719 151.671875 129.050781 151.667969 129.085938 C 153.03125 128.238281 154.542969 127.011719 155.871094 125.265625 C 155.855469 125.347656 155.539062 126.6875 154.621094 128.304688 C 152.429688 132.167969 150.886719 136.363281 150.167969 140.75 C 150.164062 140.773438 150.160156 140.792969 150.15625 140.816406 C 152.777344 138.417969 156.007812 135.023438 157.351562 133.253906 C 157.257812 133.453125 152.691406 143.234375 147.933594 149.648438 C 147.933594 149.648438 169.230469 140.253906 162.222656 113.386719 C 163.234375 117.425781 165.597656 120.988281 168.921875 123.488281 C 168.945312 123.507812 168.972656 123.527344 169 123.546875 C 169.371094 122.066406 169.511719 118.175781 169.578125 116.332031 C 169.578125 116.332031 173.867188 121.507812 175.601562 128.890625 L 175.652344 128.9375 C 175.996094 127.511719 176.445312 123.6875 176.511719 121.9375 C 176.511719 121.9375 179.679688 128.375 184.882812 142.320312 C 184.882812 142.320312 191.285156 118.324219 172.851562 105.296875 C 175.296875 106.5625 178.027344 107.214844 180.800781 107.195312 L 180.882812 107.195312 C 180.46875 106.238281 178.226562 103.691406 177.886719 103.210938 C 177.886719 103.210938 186.019531 107.199219 189.34375 107.433594 L 189.4375 107.441406 C 188.9375 106.304688 186.605469 102.703125 186.449219 102.484375 C 186.449219 102.484375 188.058594 103.3125 188.890625 104.027344 "/></g><g style="fill:#ffffff;fill-opacity:1;"><g transform="translate(114.952948, 184.268023)"><path style="stroke:none" d="M 8.78125 -5.0625 C 8.78125 -5.039062 8.78125 -5.03125 8.78125 -5.03125 C 9.363281 -5.050781 9.945312 -5.066406 10.53125 -5.078125 C 11.113281 -5.097656 11.679688 -5.085938 12.234375 -5.046875 C 12.441406 -5.035156 12.671875 -4.957031 12.921875 -4.8125 C 13.171875 -4.675781 13.316406 -4.53125 13.359375 -4.375 C 13.398438 -4.164062 13.375 -3.914062 13.28125 -3.625 C 13.195312 -3.34375 13.0625 -3.144531 12.875 -3.03125 C 11.78125 -2.238281 10.628906 -1.660156 9.421875 -1.296875 C 8.222656 -0.929688 6.945312 -0.941406 5.59375 -1.328125 C 4.289062 -1.648438 3.257812 -2.328125 2.5 -3.359375 C 1.75 -4.398438 1.382812 -5.597656 1.40625 -6.953125 C 1.4375 -8.179688 1.691406 -9.347656 2.171875 -10.453125 C 2.660156 -11.554688 3.328125 -12.523438 4.171875 -13.359375 C 5.015625 -14.191406 5.984375 -14.8125 7.078125 -15.21875 C 7.734375 -15.476562 8.390625 -15.597656 9.046875 -15.578125 C 9.710938 -15.554688 10.363281 -15.328125 11 -14.890625 C 11.570312 -14.472656 12.003906 -13.910156 12.296875 -13.203125 C 12.597656 -12.492188 12.609375 -11.835938 12.328125 -11.234375 C 12.148438 -10.878906 11.988281 -10.695312 11.84375 -10.6875 C 11.707031 -10.6875 11.5625 -10.65625 11.40625 -10.59375 C 11.164062 -10.46875 10.953125 -10.460938 10.765625 -10.578125 C 10.578125 -10.691406 10.441406 -10.828125 10.359375 -10.984375 C 9.984375 -11.554688 9.632812 -11.921875 9.3125 -12.078125 C 8.988281 -12.242188 8.546875 -12.128906 7.984375 -11.734375 C 7.203125 -11.171875 6.617188 -10.488281 6.234375 -9.6875 C 5.859375 -8.894531 5.640625 -8.039062 5.578125 -7.125 C 5.554688 -6.601562 5.679688 -6.164062 5.953125 -5.8125 C 6.234375 -5.46875 6.628906 -5.242188 7.140625 -5.140625 C 7.410156 -5.085938 7.6875 -5.0625 7.96875 -5.0625 C 8.25 -5.070312 8.519531 -5.070312 8.78125 -5.0625 Z M 8.78125 -5.0625 "/></g></g><g style="fill:#ffffff;fill-opacity:1;"><g transform="translate(132.31833, 184.943337)"><path style="stroke:none" d="M 14 -9.03125 C 14.207031 -8.363281 14.226562 -7.703125 14.0625 -7.046875 C 13.90625 -6.398438 13.644531 -5.78125 13.28125 -5.1875 C 12.925781 -4.632812 12.476562 -4.363281 11.9375 -4.375 C 11.394531 -4.382812 10.972656 -4.679688 10.671875 -5.265625 C 10.503906 -5.597656 10.363281 -5.957031 10.25 -6.34375 C 10.144531 -6.726562 10.039062 -7.109375 9.9375 -7.484375 C 9.800781 -7.984375 9.679688 -8.488281 9.578125 -9 C 9.472656 -9.519531 9.359375 -10.03125 9.234375 -10.53125 C 9.160156 -10.757812 9.054688 -10.984375 8.921875 -11.203125 C 8.796875 -11.421875 8.660156 -11.675781 8.515625 -11.96875 C 7.929688 -11.320312 7.488281 -10.671875 7.1875 -10.015625 C 6.894531 -9.367188 6.742188 -8.65625 6.734375 -7.875 C 6.710938 -7.300781 6.675781 -6.726562 6.625 -6.15625 C 6.570312 -5.59375 6.492188 -5.035156 6.390625 -4.484375 C 6.285156 -3.960938 6.066406 -3.539062 5.734375 -3.21875 C 5.410156 -2.90625 4.976562 -2.71875 4.4375 -2.65625 C 3.914062 -2.625 3.457031 -2.726562 3.0625 -2.96875 C 2.675781 -3.207031 2.398438 -3.550781 2.234375 -4 C 1.953125 -4.71875 1.691406 -5.4375 1.453125 -6.15625 C 1.222656 -6.882812 1.023438 -7.632812 0.859375 -8.40625 C 0.503906 -10.238281 0.175781 -12.085938 -0.125 -13.953125 C -0.4375 -15.816406 -0.753906 -17.660156 -1.078125 -19.484375 C -1.140625 -19.847656 -1.15625 -20.210938 -1.125 -20.578125 C -1.101562 -20.941406 -1.09375 -21.304688 -1.09375 -21.671875 C -1.039062 -22.253906 -0.863281 -22.722656 -0.5625 -23.078125 C -0.257812 -23.441406 0.109375 -23.648438 0.546875 -23.703125 C 0.992188 -23.753906 1.398438 -23.65625 1.765625 -23.40625 C 2.140625 -23.15625 2.425781 -22.765625 2.625 -22.234375 C 2.988281 -21.179688 3.332031 -20.128906 3.65625 -19.078125 C 3.976562 -18.023438 4.3125 -16.984375 4.65625 -15.953125 C 4.726562 -15.703125 4.800781 -15.453125 4.875 -15.203125 C 4.957031 -14.953125 5.050781 -14.695312 5.15625 -14.4375 C 5.363281 -14.5 5.46875 -14.53125 5.46875 -14.53125 C 6.863281 -15.507812 8.148438 -15.882812 9.328125 -15.65625 C 10.515625 -15.4375 11.539062 -14.59375 12.40625 -13.125 C 12.757812 -12.488281 13.0625 -11.820312 13.3125 -11.125 C 13.570312 -10.425781 13.800781 -9.726562 14 -9.03125 Z M 14 -9.03125 "/></g></g><g style="fill:#ffffff;fill-opacity:1;"><g transform="translate(151.349783, 182.538382)"><path style="stroke:none" d="M 8.25 -16.765625 C 9.144531 -16.242188 9.765625 -15.578125 10.109375 -14.765625 C 10.453125 -13.953125 10.5 -13.125 10.25 -12.28125 C 10.007812 -11.445312 9.460938 -10.734375 8.609375 -10.140625 C 7.921875 -9.671875 7.175781 -9.269531 6.375 -8.9375 C 5.582031 -8.613281 4.773438 -8.242188 3.953125 -7.828125 C 4.234375 -7.828125 4.503906 -7.816406 4.765625 -7.796875 C 5.023438 -7.785156 5.285156 -7.800781 5.546875 -7.84375 C 6.054688 -7.863281 6.5625 -7.921875 7.0625 -8.015625 C 7.5625 -8.109375 8.066406 -8.144531 8.578125 -8.125 C 9.304688 -8.09375 9.8125 -7.832031 10.09375 -7.34375 C 10.375 -6.851562 10.34375 -6.289062 10 -5.65625 C 9.8125 -5.3125 9.550781 -4.972656 9.21875 -4.640625 C 8.882812 -4.316406 8.535156 -4.082031 8.171875 -3.9375 C 6.515625 -3.3125 5.019531 -3.132812 3.6875 -3.40625 C 2.351562 -3.6875 1.253906 -4.300781 0.390625 -5.25 C -0.472656 -6.207031 -1.039062 -7.390625 -1.3125 -8.796875 C -1.46875 -9.671875 -1.539062 -10.53125 -1.53125 -11.375 C -1.53125 -12.226562 -1.394531 -13.085938 -1.125 -13.953125 C -0.769531 -15.054688 -0.171875 -15.945312 0.671875 -16.625 C 1.523438 -17.3125 2.53125 -17.703125 3.6875 -17.796875 C 5.34375 -17.953125 6.863281 -17.609375 8.25 -16.765625 Z M 6.53125 -13.4375 C 6.570312 -13.445312 6.609375 -13.472656 6.640625 -13.515625 C 6.671875 -13.554688 6.722656 -13.597656 6.796875 -13.640625 C 6.296875 -14.054688 5.753906 -14.296875 5.171875 -14.359375 C 4.585938 -14.429688 4.082031 -14.335938 3.65625 -14.078125 C 3.269531 -13.828125 3.015625 -13.519531 2.890625 -13.15625 C 2.773438 -12.789062 2.71875 -12.382812 2.71875 -11.9375 C 3.382812 -12.195312 4.03125 -12.445312 4.65625 -12.6875 C 5.289062 -12.9375 5.914062 -13.1875 6.53125 -13.4375 Z M 6.53125 -13.4375 "/></g></g><g style="fill:#ffffff;fill-opacity:1;"><g transform="translate(168.592788, 177.532214)"><path style="stroke:none" d="M 6.9375 -18.78125 C 7.476562 -18.664062 7.921875 -18.382812 8.265625 -17.9375 C 8.617188 -17.488281 8.757812 -16.941406 8.6875 -16.296875 C 8.519531 -14.691406 8.351562 -13.09375 8.1875 -11.5 C 8.03125 -9.914062 7.832031 -8.320312 7.59375 -6.71875 C 7.414062 -5.601562 6.90625 -4.828125 6.0625 -4.390625 C 5.226562 -3.953125 4.285156 -3.953125 3.234375 -4.390625 C 2.867188 -4.566406 2.507812 -4.765625 2.15625 -4.984375 C 1.800781 -5.210938 1.488281 -5.46875 1.21875 -5.75 C 0.363281 -6.625 -0.472656 -7.515625 -1.296875 -8.421875 C -2.128906 -9.335938 -2.953125 -10.25 -3.765625 -11.15625 C -4.179688 -11.644531 -4.492188 -12.179688 -4.703125 -12.765625 C -4.921875 -13.316406 -4.863281 -13.78125 -4.53125 -14.15625 C -4.195312 -14.539062 -3.738281 -14.664062 -3.15625 -14.53125 C -2.8125 -14.425781 -2.460938 -14.289062 -2.109375 -14.125 C -1.765625 -13.957031 -1.441406 -13.769531 -1.140625 -13.5625 C -0.441406 -13.09375 0.25 -12.601562 0.9375 -12.09375 C 1.625 -11.582031 2.328125 -11.066406 3.046875 -10.546875 C 3.191406 -11.210938 3.320312 -11.875 3.4375 -12.53125 C 3.5625 -13.195312 3.679688 -13.859375 3.796875 -14.515625 C 3.890625 -14.953125 3.976562 -15.394531 4.0625 -15.84375 C 4.15625 -16.300781 4.28125 -16.75 4.4375 -17.1875 C 4.65625 -17.769531 4.992188 -18.207031 5.453125 -18.5 C 5.921875 -18.789062 6.414062 -18.882812 6.9375 -18.78125 Z M 6.9375 -18.78125 "/></g></g><g style="fill:#ffffff;fill-opacity:1;"><g transform="translate(185.978367, 169.145046)"><path style="stroke:none" d="M 2.46875 -18.53125 C 3.488281 -18.320312 4.289062 -17.882812 4.875 -17.21875 C 5.46875 -16.5625 5.773438 -15.796875 5.796875 -14.921875 C 5.828125 -14.046875 5.539062 -13.191406 4.9375 -12.359375 C 4.425781 -11.691406 3.847656 -11.078125 3.203125 -10.515625 C 2.554688 -9.953125 1.90625 -9.34375 1.25 -8.6875 C 1.507812 -8.78125 1.769531 -8.859375 2.03125 -8.921875 C 2.289062 -8.992188 2.53125 -9.082031 2.75 -9.1875 C 3.226562 -9.382812 3.691406 -9.601562 4.140625 -9.84375 C 4.585938 -10.09375 5.050781 -10.289062 5.53125 -10.4375 C 6.238281 -10.632812 6.804688 -10.546875 7.234375 -10.171875 C 7.660156 -9.796875 7.804688 -9.253906 7.671875 -8.546875 C 7.609375 -8.148438 7.46875 -7.75 7.25 -7.34375 C 7.039062 -6.9375 6.789062 -6.601562 6.5 -6.34375 C 5.125 -5.21875 3.757812 -4.570312 2.40625 -4.40625 C 1.0625 -4.238281 -0.171875 -4.46875 -1.296875 -5.09375 C -2.421875 -5.726562 -3.335938 -6.671875 -4.046875 -7.921875 C -4.472656 -8.703125 -4.820312 -9.492188 -5.09375 -10.296875 C -5.363281 -11.097656 -5.5 -11.953125 -5.5 -12.859375 C -5.53125 -14.023438 -5.25 -15.066406 -4.65625 -15.984375 C -4.070312 -16.898438 -3.242188 -17.585938 -2.171875 -18.046875 C -0.648438 -18.722656 0.894531 -18.882812 2.46875 -18.53125 Z M 1.90625 -14.8125 C 1.9375 -14.832031 1.960938 -14.867188 1.984375 -14.921875 C 2.015625 -14.972656 2.050781 -15.03125 2.09375 -15.09375 C 1.5 -15.332031 0.910156 -15.390625 0.328125 -15.265625 C -0.242188 -15.140625 -0.691406 -14.882812 -1.015625 -14.5 C -1.296875 -14.144531 -1.4375 -13.773438 -1.4375 -13.390625 C -1.4375 -13.003906 -1.363281 -12.597656 -1.21875 -12.171875 C -0.664062 -12.628906 -0.132812 -13.078125 0.375 -13.515625 C 0.894531 -13.953125 1.40625 -14.382812 1.90625 -14.8125 Z M 1.90625 -14.8125 "/></g></g><g style="fill:#ffffff;fill-opacity:1;"><g transform="translate(200.614269, 158.915013)"><path style="stroke:none" d="M 1.71875 -17.203125 C 1.945312 -17.046875 2.160156 -16.820312 2.359375 -16.53125 C 2.566406 -16.238281 2.675781 -15.96875 2.6875 -15.71875 C 2.71875 -15.46875 2.628906 -15.203125 2.421875 -14.921875 C 2.210938 -14.648438 1.992188 -14.421875 1.765625 -14.234375 C 1.554688 -14.066406 1.296875 -13.9375 0.984375 -13.84375 C 0.671875 -13.75 0.375 -13.65625 0.09375 -13.5625 C -0.332031 -13.445312 -0.617188 -13.257812 -0.765625 -13 C -0.921875 -12.738281 -0.914062 -12.4375 -0.75 -12.09375 C -0.207031 -10.800781 0.425781 -9.53125 1.15625 -8.28125 C 1.320312 -8 1.535156 -7.753906 1.796875 -7.546875 C 2.054688 -7.335938 2.289062 -7.097656 2.5 -6.828125 C 2.925781 -6.265625 3.117188 -5.65625 3.078125 -5 C 3.046875 -4.351562 2.800781 -3.796875 2.34375 -3.328125 C 1.875 -2.835938 1.320312 -2.566406 0.6875 -2.515625 C 0.0507812 -2.460938 -0.5625 -2.632812 -1.15625 -3.03125 C -1.300781 -3.125 -1.441406 -3.222656 -1.578125 -3.328125 C -1.722656 -3.429688 -1.859375 -3.554688 -1.984375 -3.703125 C -3.140625 -4.984375 -4.296875 -6.253906 -5.453125 -7.515625 C -6.609375 -8.785156 -7.765625 -10.050781 -8.921875 -11.3125 C -9.046875 -11.4375 -9.164062 -11.582031 -9.28125 -11.75 C -9.40625 -11.914062 -9.46875 -12.082031 -9.46875 -12.25 C -9.476562 -12.539062 -9.484375 -12.863281 -9.484375 -13.21875 C -9.484375 -13.570312 -9.398438 -13.835938 -9.234375 -14.015625 C -9.066406 -14.203125 -8.8125 -14.328125 -8.46875 -14.390625 C -8.125 -14.453125 -7.789062 -14.476562 -7.46875 -14.46875 C -7.226562 -14.445312 -6.972656 -14.351562 -6.703125 -14.1875 C -6.429688 -14.03125 -6.144531 -13.878906 -5.84375 -13.734375 C -5.175781 -15.722656 -3.863281 -16.988281 -1.90625 -17.53125 C -1.28125 -17.726562 -0.660156 -17.804688 -0.046875 -17.765625 C 0.554688 -17.734375 1.144531 -17.546875 1.71875 -17.203125 Z M 1.71875 -17.203125 "/></g></g><g style="fill:#ffffff;fill-opacity:1;"><g transform="translate(213.040612, 147.110688)"><path style="stroke:none" d="M -3.203125 -18.421875 C -2.160156 -18.515625 -1.257812 -18.335938 -0.5 -17.890625 C 0.25 -17.441406 0.769531 -16.804688 1.0625 -15.984375 C 1.363281 -15.160156 1.34375 -14.253906 1 -13.265625 C 0.71875 -12.484375 0.351562 -11.722656 -0.09375 -10.984375 C -0.539062 -10.253906 -0.976562 -9.476562 -1.40625 -8.65625 C -1.1875 -8.820312 -0.960938 -8.972656 -0.734375 -9.109375 C -0.503906 -9.253906 -0.300781 -9.414062 -0.125 -9.59375 C 0.269531 -9.914062 0.644531 -10.257812 1 -10.625 C 1.351562 -11 1.738281 -11.328125 2.15625 -11.609375 C 2.769531 -12.015625 3.332031 -12.101562 3.84375 -11.875 C 4.363281 -11.644531 4.664062 -11.171875 4.75 -10.453125 C 4.800781 -10.054688 4.789062 -9.628906 4.71875 -9.171875 C 4.644531 -8.722656 4.503906 -8.332031 4.296875 -8 C 3.328125 -6.507812 2.222656 -5.484375 0.984375 -4.921875 C -0.253906 -4.367188 -1.503906 -4.222656 -2.765625 -4.484375 C -4.023438 -4.742188 -5.179688 -5.363281 -6.234375 -6.34375 C -6.878906 -6.957031 -7.445312 -7.609375 -7.9375 -8.296875 C -8.4375 -8.992188 -8.828125 -9.765625 -9.109375 -10.609375 C -9.472656 -11.722656 -9.515625 -12.800781 -9.234375 -13.84375 C -8.953125 -14.894531 -8.367188 -15.804688 -7.484375 -16.578125 C -6.234375 -17.671875 -4.804688 -18.285156 -3.203125 -18.421875 Z M -2.625 -14.703125 C -2.59375 -14.734375 -2.570312 -14.773438 -2.5625 -14.828125 C -2.5625 -14.890625 -2.550781 -14.960938 -2.53125 -15.046875 C -3.164062 -15.078125 -3.738281 -14.945312 -4.25 -14.65625 C -4.769531 -14.363281 -5.128906 -13.988281 -5.328125 -13.53125 C -5.484375 -13.101562 -5.503906 -12.707031 -5.390625 -12.34375 C -5.273438 -11.976562 -5.082031 -11.613281 -4.8125 -11.25 C -4.425781 -11.851562 -4.050781 -12.441406 -3.6875 -13.015625 C -3.320312 -13.585938 -2.96875 -14.148438 -2.625 -14.703125 Z M -2.625 -14.703125 "/></g></g><g style="fill:#ffffff;fill-opacity:1;"><g transform="translate(223.91652, 132.972082)"><path style="stroke:none" d="M -1.78125 -13.6875 C -0.632812 -14.050781 0.378906 -14.066406 1.265625 -13.734375 C 2.160156 -13.410156 2.828125 -12.828125 3.265625 -11.984375 C 3.710938 -11.140625 3.84375 -10.113281 3.65625 -8.90625 C 3.5625 -8.332031 3.421875 -7.753906 3.234375 -7.171875 C 3.046875 -6.597656 2.789062 -6.078125 2.46875 -5.609375 C 2.195312 -5.191406 1.835938 -4.800781 1.390625 -4.4375 C 0.953125 -4.070312 0.492188 -3.765625 0.015625 -3.515625 C -0.546875 -3.222656 -1.109375 -3.15625 -1.671875 -3.3125 C -2.242188 -3.46875 -2.679688 -3.757812 -2.984375 -4.1875 C -3.285156 -4.59375 -3.40625 -5.0625 -3.34375 -5.59375 C -3.28125 -6.125 -3.054688 -6.648438 -2.671875 -7.171875 C -2.390625 -7.546875 -2.117188 -7.921875 -1.859375 -8.296875 C -1.609375 -8.671875 -1.351562 -9.039062 -1.09375 -9.40625 C -1.144531 -9.445312 -1.1875 -9.488281 -1.21875 -9.53125 C -1.257812 -9.582031 -1.304688 -9.632812 -1.359375 -9.6875 C -1.640625 -9.4375 -1.914062 -9.1875 -2.1875 -8.9375 C -2.46875 -8.6875 -2.753906 -8.460938 -3.046875 -8.265625 C -3.585938 -7.898438 -4.113281 -7.535156 -4.625 -7.171875 C -5.144531 -6.804688 -5.695312 -6.519531 -6.28125 -6.3125 C -7.207031 -5.988281 -8.066406 -6 -8.859375 -6.34375 C -9.660156 -6.6875 -10.328125 -7.265625 -10.859375 -8.078125 C -11.359375 -8.890625 -11.644531 -9.800781 -11.71875 -10.8125 C -11.789062 -11.820312 -11.660156 -12.800781 -11.328125 -13.75 C -10.992188 -14.707031 -10.484375 -15.507812 -9.796875 -16.15625 C -9.265625 -16.65625 -8.691406 -16.984375 -8.078125 -17.140625 C -7.472656 -17.296875 -6.835938 -17.226562 -6.171875 -16.9375 C -5.910156 -16.832031 -5.664062 -16.648438 -5.4375 -16.390625 C -5.207031 -16.140625 -5.035156 -15.875 -4.921875 -15.59375 C -4.785156 -15.25 -4.832031 -14.953125 -5.0625 -14.703125 C -5.300781 -14.453125 -5.566406 -14.234375 -5.859375 -14.046875 C -6.523438 -13.640625 -6.953125 -13.175781 -7.140625 -12.65625 C -7.328125 -12.132812 -7.285156 -11.492188 -7.015625 -10.734375 C -6.796875 -10.890625 -6.585938 -11.035156 -6.390625 -11.171875 C -6.191406 -11.316406 -6 -11.441406 -5.8125 -11.546875 C -5.15625 -11.921875 -4.492188 -12.316406 -3.828125 -12.734375 C -3.171875 -13.160156 -2.488281 -13.476562 -1.78125 -13.6875 Z M -1.78125 -13.6875 "/></g></g><g style="fill:#b6046e;fill-opacity:1;"><g transform="translate(146.889812, 278.937128)"><path style="stroke:none" d="M 12.828125 -3.375 C 13.429688 -2.820312 13.84375 -2.15625 14.0625 -1.375 C 14.289062 -0.59375 14.203125 0.253906 13.796875 1.171875 C 13.160156 2.628906 12.28125 3.484375 11.15625 3.734375 C 10.039062 3.992188 8.875 3.859375 7.65625 3.328125 L 2.578125 1.125 C 2.316406 1.007812 2.132812 0.816406 2.03125 0.546875 C 1.9375 0.273438 1.941406 0.0078125 2.046875 -0.25 L 7.234375 -12.15625 C 7.347656 -12.414062 7.535156 -12.597656 7.796875 -12.703125 C 8.054688 -12.804688 8.316406 -12.800781 8.578125 -12.6875 L 13.65625 -10.484375 C 14.851562 -9.960938 15.632812 -9.269531 16 -8.40625 C 16.363281 -7.539062 16.300781 -6.550781 15.8125 -5.4375 C 15.539062 -4.800781 15.148438 -4.300781 14.640625 -3.9375 C 14.128906 -3.582031 13.523438 -3.394531 12.828125 -3.375 Z M 13.671875 -6.015625 C 13.941406 -6.628906 13.976562 -7.171875 13.78125 -7.640625 C 13.582031 -8.109375 13.179688 -8.476562 12.578125 -8.75 L 8.859375 -10.359375 L 7.1875 -6.515625 L 10.953125 -4.875 C 11.484375 -4.65625 12 -4.632812 12.5 -4.8125 C 13.007812 -5 13.398438 -5.398438 13.671875 -6.015625 Z M 8.4375 1.515625 C 9.15625 1.828125 9.8125 1.890625 10.40625 1.703125 C 11.007812 1.515625 11.472656 1.046875 11.796875 0.296875 C 12.429688 -1.171875 11.914062 -2.265625 10.25 -2.984375 L 6.375 -4.671875 L 4.453125 -0.21875 Z M 8.4375 1.515625 "/></g></g><g style="fill:#b6046e;fill-opacity:1;"><g transform="translate(162.580543, 285.250949)"><path style="stroke:none" d="M 3.890625 0.046875 C 3.816406 0.316406 3.648438 0.519531 3.390625 0.65625 C 3.140625 0.800781 2.878906 0.832031 2.609375 0.75 C 2.328125 0.664062 2.125 0.5 2 0.25 C 1.875 0.0078125 1.847656 -0.242188 1.921875 -0.515625 L 5.75 -13.84375 C 5.832031 -14.113281 5.992188 -14.316406 6.234375 -14.453125 C 6.484375 -14.585938 6.75 -14.617188 7.03125 -14.546875 C 7.300781 -14.460938 7.503906 -14.296875 7.640625 -14.046875 C 7.773438 -13.804688 7.800781 -13.550781 7.71875 -13.28125 Z M 3.890625 0.046875 "/></g></g><g style="fill:#b6046e;fill-opacity:1;"><g transform="translate(170.532909, 287.600998)"><path style="stroke:none" d="M 12.9375 -3.6875 C 12.757812 -2.570312 12.351562 -1.613281 11.71875 -0.8125 C 11.082031 -0.0195312 10.296875 0.554688 9.359375 0.921875 C 8.429688 1.285156 7.445312 1.390625 6.40625 1.234375 C 5.375 1.066406 4.46875 0.664062 3.6875 0.03125 C 2.90625 -0.601562 2.332031 -1.394531 1.96875 -2.34375 C 1.613281 -3.300781 1.523438 -4.335938 1.703125 -5.453125 C 1.878906 -6.546875 2.285156 -7.5 2.921875 -8.3125 C 3.554688 -9.132812 4.335938 -9.722656 5.265625 -10.078125 C 6.203125 -10.441406 7.1875 -10.539062 8.21875 -10.375 C 9.257812 -10.21875 10.171875 -9.820312 10.953125 -9.1875 C 11.734375 -8.5625 12.300781 -7.757812 12.65625 -6.78125 C 13.019531 -5.8125 13.113281 -4.78125 12.9375 -3.6875 Z M 10.90625 -4 C 11.019531 -4.757812 10.96875 -5.460938 10.75 -6.109375 C 10.53125 -6.765625 10.171875 -7.300781 9.671875 -7.71875 C 9.179688 -8.144531 8.601562 -8.410156 7.9375 -8.515625 C 7.28125 -8.617188 6.648438 -8.546875 6.046875 -8.296875 C 5.441406 -8.046875 4.929688 -7.644531 4.515625 -7.09375 C 4.109375 -6.539062 3.847656 -5.882812 3.734375 -5.125 C 3.617188 -4.375 3.671875 -3.675781 3.890625 -3.03125 C 4.109375 -2.382812 4.46875 -1.847656 4.96875 -1.421875 C 5.46875 -1.003906 6.046875 -0.742188 6.703125 -0.640625 C 7.367188 -0.535156 8 -0.609375 8.59375 -0.859375 C 9.195312 -1.109375 9.703125 -1.503906 10.109375 -2.046875 C 10.523438 -2.597656 10.789062 -3.25 10.90625 -4 Z M 10.90625 -4 "/></g></g><g style="fill:#b6046e;fill-opacity:1;"><g transform="translate(186.59076, 289.866482)"><path style="stroke:none" d="M 10.796875 -11.578125 C 11.097656 -11.578125 11.34375 -11.484375 11.53125 -11.296875 C 11.726562 -11.109375 11.832031 -10.859375 11.84375 -10.546875 L 11.96875 -1.078125 C 11.988281 0.0859375 11.753906 1.066406 11.265625 1.859375 C 10.785156 2.648438 10.125 3.234375 9.28125 3.609375 C 8.4375 3.992188 7.488281 4.191406 6.4375 4.203125 C 5.863281 4.210938 5.1875 4.125 4.40625 3.9375 C 3.632812 3.75 3.144531 3.546875 2.9375 3.328125 C 2.488281 3.109375 2.257812 2.828125 2.25 2.484375 C 2.25 2.398438 2.273438 2.285156 2.328125 2.140625 C 2.472656 1.785156 2.734375 1.601562 3.109375 1.59375 C 3.296875 1.59375 3.503906 1.632812 3.734375 1.71875 C 4.878906 2.144531 5.773438 2.351562 6.421875 2.34375 C 7.566406 2.332031 8.441406 2.046875 9.046875 1.484375 C 9.648438 0.921875 9.941406 0.15625 9.921875 -0.8125 L 9.90625 -1.96875 C 9.613281 -1.394531 9.113281 -0.898438 8.40625 -0.484375 C 7.707031 -0.078125 6.960938 0.128906 6.171875 0.140625 C 5.179688 0.148438 4.273438 -0.0859375 3.453125 -0.578125 C 2.628906 -1.078125 1.976562 -1.769531 1.5 -2.65625 C 1.03125 -3.550781 0.785156 -4.554688 0.765625 -5.671875 C 0.753906 -6.796875 0.972656 -7.804688 1.421875 -8.703125 C 1.867188 -9.609375 2.492188 -10.316406 3.296875 -10.828125 C 4.109375 -11.335938 5 -11.597656 5.96875 -11.609375 C 6.757812 -11.617188 7.5 -11.445312 8.1875 -11.09375 C 8.875 -10.75 9.410156 -10.328125 9.796875 -9.828125 L 9.796875 -10.515625 C 9.785156 -10.816406 9.875 -11.066406 10.0625 -11.265625 C 10.25 -11.460938 10.492188 -11.566406 10.796875 -11.578125 Z M 6.390625 -1.765625 C 7.097656 -1.773438 7.71875 -1.953125 8.25 -2.296875 C 8.789062 -2.640625 9.210938 -3.117188 9.515625 -3.734375 C 9.816406 -4.347656 9.960938 -5.035156 9.953125 -5.796875 C 9.941406 -6.554688 9.773438 -7.234375 9.453125 -7.828125 C 9.128906 -8.429688 8.695312 -8.898438 8.15625 -9.234375 C 7.613281 -9.578125 6.988281 -9.742188 6.28125 -9.734375 C 5.59375 -9.722656 4.976562 -9.539062 4.4375 -9.1875 C 3.894531 -8.832031 3.472656 -8.347656 3.171875 -7.734375 C 2.867188 -7.117188 2.722656 -6.4375 2.734375 -5.6875 C 2.742188 -4.945312 2.910156 -4.273438 3.234375 -3.671875 C 3.554688 -3.066406 3.988281 -2.59375 4.53125 -2.25 C 5.082031 -1.914062 5.703125 -1.753906 6.390625 -1.765625 Z M 6.390625 -1.765625 "/></g></g><g style="fill:#b6046e;fill-opacity:1;"><g transform="translate(202.932411, 289.212821)"><path style="stroke:none" d=""/></g></g><g style="fill:#b6046e;fill-opacity:1;"><g transform="translate(211.685697, 287.995798)"><path style="stroke:none" d="M 6 -18.203125 C 6.289062 -18.285156 6.550781 -18.257812 6.78125 -18.125 C 7.019531 -17.988281 7.179688 -17.773438 7.265625 -17.484375 L 10.984375 -4.140625 C 11.066406 -3.867188 11.039062 -3.609375 10.90625 -3.359375 C 10.78125 -3.109375 10.570312 -2.941406 10.28125 -2.859375 C 9.988281 -2.785156 9.722656 -2.816406 9.484375 -2.953125 C 9.253906 -3.085938 9.097656 -3.300781 9.015625 -3.59375 L 8.859375 -4.171875 C 8.660156 -3.578125 8.296875 -3.019531 7.765625 -2.5 C 7.234375 -1.976562 6.609375 -1.617188 5.890625 -1.421875 C 4.941406 -1.160156 4.019531 -1.164062 3.125 -1.4375 C 2.238281 -1.707031 1.453125 -2.210938 0.765625 -2.953125 C 0.0859375 -3.703125 -0.398438 -4.613281 -0.703125 -5.6875 C -1.003906 -6.769531 -1.054688 -7.800781 -0.859375 -8.78125 C -0.671875 -9.757812 -0.265625 -10.59375 0.359375 -11.28125 C 0.984375 -11.976562 1.753906 -12.457031 2.671875 -12.71875 C 3.398438 -12.914062 4.117188 -12.945312 4.828125 -12.8125 C 5.535156 -12.6875 6.144531 -12.4375 6.65625 -12.0625 L 5.296875 -16.9375 C 5.210938 -17.226562 5.234375 -17.492188 5.359375 -17.734375 C 5.492188 -17.972656 5.707031 -18.128906 6 -18.203125 Z M 5.59375 -3.296875 C 6.25 -3.472656 6.78125 -3.800781 7.1875 -4.28125 C 7.59375 -4.757812 7.859375 -5.328125 7.984375 -5.984375 C 8.109375 -6.640625 8.070312 -7.335938 7.875 -8.078125 C 7.664062 -8.796875 7.335938 -9.40625 6.890625 -9.90625 C 6.441406 -10.414062 5.921875 -10.765625 5.328125 -10.953125 C 4.734375 -11.140625 4.109375 -11.144531 3.453125 -10.96875 C 2.804688 -10.789062 2.273438 -10.46875 1.859375 -10 C 1.453125 -9.53125 1.1875 -8.957031 1.0625 -8.28125 C 0.9375 -7.613281 0.976562 -6.921875 1.1875 -6.203125 C 1.382812 -5.460938 1.707031 -4.847656 2.15625 -4.359375 C 2.601562 -3.867188 3.125 -3.523438 3.71875 -3.328125 C 4.320312 -3.128906 4.945312 -3.117188 5.59375 -3.296875 Z M 5.59375 -3.296875 "/></g></g><g style="fill:#b6046e;fill-opacity:1;"><g transform="translate(227.343875, 283.324583)"><path style="stroke:none" d="M 7.796875 -10.3125 C 7.890625 -10.082031 7.882812 -9.835938 7.78125 -9.578125 C 7.675781 -9.328125 7.5 -9.144531 7.25 -9.03125 L 0.375 -5.84375 C 0.90625 -4.945312 1.625 -4.359375 2.53125 -4.078125 C 3.4375 -3.796875 4.34375 -3.863281 5.25 -4.28125 C 5.875 -4.570312 6.335938 -4.898438 6.640625 -5.265625 C 6.941406 -5.628906 7.175781 -6.023438 7.34375 -6.453125 C 7.476562 -6.660156 7.632812 -6.804688 7.8125 -6.890625 C 8.039062 -6.992188 8.265625 -7 8.484375 -6.90625 C 8.703125 -6.820312 8.859375 -6.675781 8.953125 -6.46875 C 9.085938 -6.195312 9.082031 -5.890625 8.9375 -5.546875 C 8.726562 -4.992188 8.375 -4.441406 7.875 -3.890625 C 7.375 -3.335938 6.796875 -2.910156 6.140625 -2.609375 C 5.085938 -2.117188 4.054688 -1.910156 3.046875 -1.984375 C 2.035156 -2.066406 1.128906 -2.398438 0.328125 -2.984375 C -0.472656 -3.578125 -1.101562 -4.375 -1.5625 -5.375 C -2.070312 -6.46875 -2.296875 -7.53125 -2.234375 -8.5625 C -2.171875 -9.59375 -1.875 -10.5 -1.34375 -11.28125 C -0.8125 -12.0625 -0.125 -12.648438 0.71875 -13.046875 C 1.550781 -13.429688 2.429688 -13.578125 3.359375 -13.484375 C 4.285156 -13.398438 5.144531 -13.082031 5.9375 -12.53125 C 6.738281 -11.988281 7.359375 -11.25 7.796875 -10.3125 Z M 1.515625 -11.328125 C 0.785156 -10.992188 0.25 -10.5 -0.09375 -9.84375 C -0.4375 -9.1875 -0.488281 -8.382812 -0.25 -7.4375 L 5.5 -10.125 L 5.421875 -10.28125 C 5.023438 -10.9375 4.445312 -11.351562 3.6875 -11.53125 C 2.9375 -11.71875 2.210938 -11.648438 1.515625 -11.328125 Z M 1.515625 -11.328125 "/></g></g><g style="fill:#b6046e;fill-opacity:1;"><g transform="translate(240.857645, 276.63372)"><path style="stroke:none" d=""/></g></g><g style="fill:#b6046e;fill-opacity:1;"><g transform="translate(248.448105, 271.996565)"><path style="stroke:none" d="M 0.15625 -19.734375 C 0.375 -19.921875 0.625 -20.007812 0.90625 -20 C 1.1875 -19.988281 1.414062 -19.878906 1.59375 -19.671875 C 1.675781 -19.566406 1.75 -19.421875 1.8125 -19.234375 L 5.890625 -5.765625 C 5.941406 -5.523438 5.929688 -5.300781 5.859375 -5.09375 C 5.785156 -4.882812 5.675781 -4.71875 5.53125 -4.59375 C 5.375 -4.488281 5.195312 -4.421875 5 -4.390625 C 4.800781 -4.367188 4.601562 -4.40625 4.40625 -4.5 L -8.125 -10.984375 C -8.238281 -11.035156 -8.359375 -11.132812 -8.484375 -11.28125 C -8.671875 -11.507812 -8.742188 -11.765625 -8.703125 -12.046875 C -8.660156 -12.328125 -8.535156 -12.550781 -8.328125 -12.71875 C -8.003906 -13 -7.617188 -13.023438 -7.171875 -12.796875 L 3.53125 -7.265625 L -0.15625 -18.640625 C -0.21875 -18.847656 -0.21875 -19.050781 -0.15625 -19.25 C -0.101562 -19.445312 0 -19.609375 0.15625 -19.734375 Z M 0.15625 -19.734375 "/></g></g><g style="fill:#b6046e;fill-opacity:1;"><g transform="translate(261.440309, 260.549824)"><path style="stroke:none" d="M 1.609375 -3.25 C 1.804688 -3.0625 1.914062 -2.828125 1.9375 -2.546875 C 1.957031 -2.265625 1.863281 -2.007812 1.65625 -1.78125 C 1.457031 -1.570312 1.21875 -1.46875 0.9375 -1.46875 C 0.65625 -1.46875 0.414062 -1.5625 0.21875 -1.75 L -6.609375 -8.078125 C -6.828125 -8.273438 -6.941406 -8.507812 -6.953125 -8.78125 C -6.972656 -9.0625 -6.882812 -9.304688 -6.6875 -9.515625 C -6.476562 -9.742188 -6.234375 -9.859375 -5.953125 -9.859375 C -5.679688 -9.867188 -5.4375 -9.773438 -5.21875 -9.578125 Z M -7.71875 -10.484375 C -8 -10.179688 -8.257812 -10.015625 -8.5 -9.984375 C -8.738281 -9.953125 -8.976562 -10.046875 -9.21875 -10.265625 L -9.46875 -10.5 C -9.726562 -10.738281 -9.84375 -10.976562 -9.8125 -11.21875 C -9.78125 -11.46875 -9.628906 -11.738281 -9.359375 -12.03125 C -9.085938 -12.332031 -8.835938 -12.492188 -8.609375 -12.515625 C -8.378906 -12.546875 -8.140625 -12.445312 -7.890625 -12.21875 L -7.640625 -11.984375 C -7.390625 -11.753906 -7.269531 -11.519531 -7.28125 -11.28125 C -7.300781 -11.039062 -7.445312 -10.773438 -7.71875 -10.484375 Z M -7.71875 -10.484375 "/></g></g><g style="fill:#b6046e;fill-opacity:1;"><g transform="translate(266.748976, 254.948296)"><path style="stroke:none" d="M -3.015625 -15.34375 C -2.835938 -15.582031 -2.613281 -15.722656 -2.34375 -15.765625 C -2.070312 -15.804688 -1.804688 -15.738281 -1.546875 -15.5625 L 6.015625 -10.09375 C 6.242188 -9.925781 6.382812 -9.703125 6.4375 -9.421875 C 6.488281 -9.148438 6.425781 -8.894531 6.25 -8.65625 C 6.070312 -8.40625 5.847656 -8.257812 5.578125 -8.21875 C 5.316406 -8.1875 5.0625 -8.257812 4.8125 -8.4375 L 4.359375 -8.765625 C 4.546875 -8.171875 4.59375 -7.507812 4.5 -6.78125 C 4.414062 -6.050781 4.15625 -5.382812 3.71875 -4.78125 C 3.144531 -3.988281 2.421875 -3.414062 1.546875 -3.0625 C 0.671875 -2.707031 -0.257812 -2.609375 -1.25 -2.765625 C -2.238281 -2.929688 -3.179688 -3.34375 -4.078125 -4 C -4.992188 -4.65625 -5.679688 -5.425781 -6.140625 -6.3125 C -6.609375 -7.195312 -6.8125 -8.109375 -6.75 -9.046875 C -6.695312 -9.984375 -6.394531 -10.832031 -5.84375 -11.59375 C -5.394531 -12.21875 -4.851562 -12.695312 -4.21875 -13.03125 C -3.582031 -13.375 -2.957031 -13.5625 -2.34375 -13.59375 L -2.75 -13.90625 C -3 -14.082031 -3.148438 -14.300781 -3.203125 -14.5625 C -3.253906 -14.832031 -3.191406 -15.09375 -3.015625 -15.34375 Z M 2.3125 -6.078125 C 2.707031 -6.628906 2.914062 -7.21875 2.9375 -7.84375 C 2.96875 -8.46875 2.828125 -9.070312 2.515625 -9.65625 C 2.203125 -10.25 1.738281 -10.769531 1.125 -11.21875 C 0.507812 -11.65625 -0.125 -11.925781 -0.78125 -12.03125 C -1.4375 -12.144531 -2.0625 -12.09375 -2.65625 -11.875 C -3.25 -11.664062 -3.742188 -11.285156 -4.140625 -10.734375 C -4.535156 -10.179688 -4.742188 -9.59375 -4.765625 -8.96875 C -4.796875 -8.351562 -4.65625 -7.75 -4.34375 -7.15625 C -4.03125 -6.5625 -3.5625 -6.039062 -2.9375 -5.59375 C -2.320312 -5.144531 -1.679688 -4.863281 -1.015625 -4.75 C -0.359375 -4.644531 0.257812 -4.703125 0.84375 -4.921875 C 1.425781 -5.140625 1.914062 -5.523438 2.3125 -6.078125 Z M 2.3125 -6.078125 "/></g></g><g style="fill:#b6046e;fill-opacity:1;"><g transform="translate(275.803177, 241.697093)"><path style="stroke:none" d="M 3.96875 1.578125 C 3.832031 1.816406 3.640625 1.96875 3.390625 2.03125 C 3.140625 2.101562 2.90625 2.082031 2.6875 1.96875 L 2.515625 1.875 C 2.097656 1.644531 1.96875 1.238281 2.125 0.65625 C 2.332031 -0.28125 1.921875 -1.035156 0.890625 -1.609375 L -8.109375 -6.515625 C -8.367188 -6.648438 -8.539062 -6.847656 -8.625 -7.109375 C -8.707031 -7.378906 -8.675781 -7.648438 -8.53125 -7.921875 C -8.394531 -8.171875 -8.191406 -8.332031 -7.921875 -8.40625 C -7.648438 -8.476562 -7.382812 -8.445312 -7.125 -8.3125 L 2.328125 -3.15625 C 2.984375 -2.789062 3.476562 -2.335938 3.8125 -1.796875 C 4.15625 -1.265625 4.335938 -0.695312 4.359375 -0.09375 C 4.378906 0.5 4.25 1.054688 3.96875 1.578125 Z M -9.875 -8.625 C -10.070312 -8.257812 -10.28125 -8.03125 -10.5 -7.9375 C -10.726562 -7.851562 -10.988281 -7.890625 -11.28125 -8.046875 L -11.578125 -8.21875 C -11.878906 -8.382812 -12.046875 -8.585938 -12.078125 -8.828125 C -12.117188 -9.066406 -12.039062 -9.363281 -11.84375 -9.71875 C -11.65625 -10.070312 -11.445312 -10.289062 -11.21875 -10.375 C -11 -10.457031 -10.742188 -10.421875 -10.453125 -10.265625 L -10.15625 -10.09375 C -9.851562 -9.925781 -9.679688 -9.722656 -9.640625 -9.484375 C -9.609375 -9.253906 -9.6875 -8.96875 -9.875 -8.625 Z M -9.875 -8.625 "/></g></g><g style="fill:#b6046e;fill-opacity:1;"><g transform="translate(279.86746, 234.303841)"><path style="stroke:none" d="M -1.421875 -12.84375 C -1.191406 -12.738281 -1.03125 -12.554688 -0.9375 -12.296875 C -0.84375 -12.046875 -0.847656 -11.796875 -0.953125 -11.546875 L -3.75 -4.5 C -2.738281 -4.226562 -1.804688 -4.296875 -0.953125 -4.703125 C -0.0976562 -5.109375 0.507812 -5.773438 0.875 -6.703125 C 1.125 -7.347656 1.234375 -7.910156 1.203125 -8.390625 C 1.171875 -8.867188 1.066406 -9.316406 0.890625 -9.734375 C 0.847656 -9.984375 0.863281 -10.203125 0.9375 -10.390625 C 1.03125 -10.617188 1.1875 -10.773438 1.40625 -10.859375 C 1.625 -10.953125 1.835938 -10.953125 2.046875 -10.859375 C 2.328125 -10.753906 2.539062 -10.523438 2.6875 -10.171875 C 2.914062 -9.628906 3.035156 -8.984375 3.046875 -8.234375 C 3.054688 -7.492188 2.929688 -6.789062 2.671875 -6.125 C 2.234375 -5.039062 1.625 -4.179688 0.84375 -3.546875 C 0.0703125 -2.910156 -0.804688 -2.53125 -1.796875 -2.40625 C -2.785156 -2.28125 -3.796875 -2.421875 -4.828125 -2.828125 C -5.953125 -3.265625 -6.84375 -3.878906 -7.5 -4.671875 C -8.164062 -5.472656 -8.578125 -6.335938 -8.734375 -7.265625 C -8.890625 -8.203125 -8.796875 -9.101562 -8.453125 -9.96875 C -8.109375 -10.820312 -7.566406 -11.535156 -6.828125 -12.109375 C -6.085938 -12.679688 -5.242188 -13.039062 -4.296875 -13.1875 C -3.347656 -13.332031 -2.390625 -13.21875 -1.421875 -12.84375 Z M -6.6875 -9.28125 C -6.976562 -8.539062 -7.023438 -7.8125 -6.828125 -7.09375 C -6.628906 -6.382812 -6.117188 -5.765625 -5.296875 -5.234375 L -2.96875 -11.125 L -3.125 -11.1875 C -3.851562 -11.40625 -4.554688 -11.320312 -5.234375 -10.9375 C -5.910156 -10.550781 -6.394531 -10 -6.6875 -9.28125 Z M -6.6875 -9.28125 "/></g></g><g style="fill:#b6046e;fill-opacity:1;"><g transform="translate(285.225963, 220.009111)"><path style="stroke:none" d="M -1.515625 -1.265625 C -1.734375 -1.179688 -1.9375 -1.160156 -2.125 -1.203125 C -2.40625 -1.273438 -2.609375 -1.476562 -2.734375 -1.8125 C -2.804688 -1.976562 -2.820312 -2.148438 -2.78125 -2.328125 C -2.71875 -2.578125 -2.554688 -2.785156 -2.296875 -2.953125 C -1.710938 -3.253906 -1.25 -3.613281 -0.90625 -4.03125 C -0.5625 -4.457031 -0.304688 -5.015625 -0.140625 -5.703125 C -0.0351562 -6.234375 -0.046875 -6.726562 -0.171875 -7.1875 C -0.304688 -7.644531 -0.632812 -7.929688 -1.15625 -8.046875 C -1.632812 -8.160156 -2.046875 -8.035156 -2.390625 -7.671875 C -2.734375 -7.316406 -3.109375 -6.769531 -3.515625 -6.03125 C -3.898438 -5.300781 -4.269531 -4.703125 -4.625 -4.234375 C -4.976562 -3.773438 -5.414062 -3.421875 -5.9375 -3.171875 C -6.46875 -2.921875 -7.085938 -2.878906 -7.796875 -3.046875 C -8.421875 -3.203125 -8.929688 -3.507812 -9.328125 -3.96875 C -9.722656 -4.4375 -9.976562 -5 -10.09375 -5.65625 C -10.21875 -6.3125 -10.195312 -6.988281 -10.03125 -7.6875 C -9.875 -8.351562 -9.59375 -8.988281 -9.1875 -9.59375 C -8.78125 -10.195312 -8.273438 -10.648438 -7.671875 -10.953125 C -7.429688 -11.066406 -7.207031 -11.101562 -7 -11.0625 C -6.78125 -11.007812 -6.585938 -10.847656 -6.421875 -10.578125 C -6.335938 -10.398438 -6.320312 -10.207031 -6.375 -10 C -6.425781 -9.75 -6.550781 -9.566406 -6.75 -9.453125 C -7.144531 -9.242188 -7.484375 -8.945312 -7.765625 -8.5625 C -8.054688 -8.175781 -8.257812 -7.722656 -8.375 -7.203125 C -8.5 -6.679688 -8.492188 -6.207031 -8.359375 -5.78125 C -8.234375 -5.363281 -7.914062 -5.09375 -7.40625 -4.96875 C -6.914062 -4.863281 -6.5 -4.988281 -6.15625 -5.34375 C -5.820312 -5.695312 -5.445312 -6.273438 -5.03125 -7.078125 C -4.65625 -7.773438 -4.300781 -8.34375 -3.96875 -8.78125 C -3.632812 -9.21875 -3.207031 -9.550781 -2.6875 -9.78125 C -2.164062 -10.007812 -1.550781 -10.039062 -0.84375 -9.875 C -0.175781 -9.71875 0.347656 -9.394531 0.734375 -8.90625 C 1.128906 -8.414062 1.382812 -7.835938 1.5 -7.171875 C 1.625 -6.503906 1.601562 -5.828125 1.4375 -5.140625 C 1.226562 -4.265625 0.878906 -3.488281 0.390625 -2.8125 C -0.0976562 -2.132812 -0.734375 -1.617188 -1.515625 -1.265625 Z M -1.515625 -1.265625 "/></g></g></g></svg>